<svg width="48" height="48" viewBox="0 0 48 48" fill="none" xmlns="http://www.w3.org/2000/svg">
<g clip-path="url(#clip0_873_6)">
<rect width="48" height="48" fill="#07F267"/>
<path d="M6.75852 28V19.2727H12.5369V20.794H8.60369V22.8736H12.1534V24.3949H8.60369V28H6.75852ZM20.6383 22.3281H18.7719C18.7378 22.0866 18.6682 21.8722 18.5631 21.6847C18.4579 21.4943 18.323 21.3324 18.1582 21.1989C17.9935 21.0653 17.8031 20.9631 17.5872 20.892C17.3741 20.821 17.1426 20.7855 16.8926 20.7855C16.4409 20.7855 16.0474 20.8977 15.7122 21.1222C15.377 21.3437 15.117 21.6676 14.9324 22.0938C14.7477 22.517 14.6554 23.0312 14.6554 23.6364C14.6554 24.2585 14.7477 24.7812 14.9324 25.2045C15.1199 25.6278 15.3812 25.9474 15.7165 26.1634C16.0517 26.3793 16.4395 26.4872 16.8798 26.4872C17.127 26.4872 17.3557 26.4545 17.5659 26.3892C17.779 26.3239 17.9679 26.2287 18.1327 26.1037C18.2974 25.9759 18.4338 25.821 18.5417 25.6392C18.6525 25.4574 18.7292 25.25 18.7719 25.017L20.6383 25.0256C20.59 25.4261 20.4693 25.8125 20.2761 26.1847C20.0858 26.554 19.8287 26.8849 19.5048 27.1776C19.1838 27.4673 18.8003 27.6974 18.3542 27.8679C17.9111 28.0355 17.4096 28.1193 16.85 28.1193C16.0716 28.1193 15.3756 27.9432 14.7619 27.5909C14.1511 27.2386 13.6682 26.7287 13.3131 26.0611C12.9608 25.3935 12.7846 24.5852 12.7846 23.6364C12.7846 22.6847 12.9636 21.875 13.3216 21.2074C13.6795 20.5398 14.1653 20.0312 14.779 19.6818C15.3926 19.3295 16.0829 19.1534 16.85 19.1534C17.3557 19.1534 17.8244 19.2244 18.2562 19.3665C18.6909 19.5085 19.0758 19.7159 19.4111 19.9886C19.7463 20.2585 20.019 20.5895 20.2292 20.9815C20.4423 21.3736 20.5787 21.8224 20.6383 22.3281ZM22.1485 28.1108C21.8672 28.1108 21.6258 28.0114 21.424 27.8125C21.2252 27.6108 21.1258 27.3693 21.1258 27.0881C21.1258 26.8097 21.2252 26.571 21.424 26.3722C21.6258 26.1733 21.8672 26.0739 22.1485 26.0739C22.4212 26.0739 22.6598 26.1733 22.8644 26.3722C23.0689 26.571 23.1712 26.8097 23.1712 27.0881C23.1712 27.2756 23.1229 27.4474 23.0263 27.6037C22.9326 27.7571 22.809 27.8807 22.6556 27.9744C22.5022 28.0653 22.3331 28.1108 22.1485 28.1108ZM29.6426 22.0938C29.583 21.8864 29.4992 21.7031 29.3912 21.544C29.2833 21.3821 29.1512 21.2457 28.9949 21.1349C28.8415 21.0213 28.6654 20.9347 28.4665 20.875C28.2705 20.8153 28.0532 20.7855 27.8145 20.7855C27.3685 20.7855 26.9764 20.8963 26.6384 21.1179C26.3032 21.3395 26.0418 21.6619 25.8543 22.0852C25.6668 22.5057 25.573 23.0199 25.573 23.6278C25.573 24.2358 25.6654 24.7528 25.85 25.179C26.0347 25.6051 26.2961 25.9304 26.6341 26.1548C26.9722 26.3764 27.3713 26.4872 27.8316 26.4872C28.2492 26.4872 28.6057 26.4134 28.9012 26.2656C29.1995 26.1151 29.4267 25.9034 29.583 25.6307C29.7421 25.358 29.8216 25.0355 29.8216 24.6634L30.1966 24.7188H27.9466V23.3295H31.5986V24.429C31.5986 25.196 31.4367 25.8551 31.1128 26.4062C30.7889 26.9545 30.3429 27.3778 29.7747 27.6761C29.2066 27.9716 28.556 28.1193 27.823 28.1193C27.0049 28.1193 26.2861 27.9389 25.6668 27.5781C25.0475 27.2145 24.5645 26.6989 24.2179 26.0312C23.8742 25.3608 23.7023 24.5653 23.7023 23.6449C23.7023 22.9375 23.8046 22.3068 24.0091 21.7528C24.2165 21.196 24.5063 20.7244 24.8784 20.3381C25.2506 19.9517 25.6838 19.6577 26.1782 19.456C26.6725 19.2543 27.208 19.1534 27.7847 19.1534C28.279 19.1534 28.7392 19.2259 29.1654 19.3707C29.5915 19.5128 29.9693 19.7145 30.2989 19.9759C30.6313 20.2372 30.9026 20.5483 31.1128 20.9091C31.323 21.267 31.458 21.6619 31.5176 22.0938H29.6426ZM37.9315 22.0938C37.8719 21.8864 37.7881 21.7031 37.6801 21.544C37.5722 21.3821 37.4401 21.2457 37.2838 21.1349C37.1304 21.0213 36.9543 20.9347 36.7554 20.875C36.5594 20.8153 36.3421 20.7855 36.1034 20.7855C35.6574 20.7855 35.2654 20.8963 34.9273 21.1179C34.5921 21.3395 34.3307 21.6619 34.1432 22.0852C33.9557 22.5057 33.8619 23.0199 33.8619 23.6278C33.8619 24.2358 33.9543 24.7528 34.1389 25.179C34.3236 25.6051 34.585 25.9304 34.923 26.1548C35.2611 26.3764 35.6602 26.4872 36.1205 26.4872C36.5381 26.4872 36.8946 26.4134 37.1901 26.2656C37.4884 26.1151 37.7156 25.9034 37.8719 25.6307C38.031 25.358 38.1105 25.0355 38.1105 24.6634L38.4855 24.7188H36.2355V23.3295H39.8875V24.429C39.8875 25.196 39.7256 25.8551 39.4017 26.4062C39.0779 26.9545 38.6318 27.3778 38.0636 27.6761C37.4955 27.9716 36.8449 28.1193 36.1119 28.1193C35.2938 28.1193 34.575 27.9389 33.9557 27.5781C33.3364 27.2145 32.8534 26.6989 32.5068 26.0312C32.1631 25.3608 31.9912 24.5653 31.9912 23.6449C31.9912 22.9375 32.0935 22.3068 32.298 21.7528C32.5054 21.196 32.7952 20.7244 33.1673 20.3381C33.5395 19.9517 33.9727 19.6577 34.4671 19.456C34.9614 19.2543 35.4969 19.1534 36.0736 19.1534C36.5679 19.1534 37.0281 19.2259 37.4543 19.3707C37.8804 19.5128 38.2583 19.7145 38.5878 19.9759C38.9202 20.2372 39.1915 20.5483 39.4017 20.9091C39.6119 21.267 39.7469 21.6619 39.8065 22.0938H37.9315Z" fill="black"/>
</g>
<defs>
<clipPath id="clip0_873_6">
<rect width="48" height="48" fill="white"/>
</clipPath>
</defs>
</svg>
